<?xml version="1.0" encoding="UTF-8"?>
<svg id="Capa_1" xmlns="http://www.w3.org/2000/svg" version="1.1" viewBox="0 0 1989.76 500">
  <!-- Generator: Adobe Illustrator 29.7.1, SVG Export Plug-In . SVG Version: 2.1.1 Build 8)  -->
  <defs>
    <style>
      .st0 {
        fill: #3498db;
      }
    </style>
  </defs>
  <g>
    <g>
      <path class="st0" d="M480.68,197.4h27.9v16.33c3.01-6.44,7.04-11.33,12.03-14.66,5.01-3.35,10.49-5,16.46-5,4.21,0,8.62,1.12,13.23,3.33l-10.13,28.01c-3.82-1.91-6.94-2.87-9.41-2.87-5.01,0-9.25,3.11-12.71,9.3-3.44,6.21-5.17,18.36-5.17,36.48l.13,6.31v52.46h-32.32v-129.69Z"/>
      <path class="st0" d="M575.42,144c5.72,0,10.6,2.05,14.69,6.19,4.08,4.14,6.12,9.16,6.12,15.01s-2.03,10.76-6.07,14.85c-4.04,4.11-8.87,6.13-14.51,6.13s-10.72-2.07-14.79-6.25c-4.09-4.16-6.13-9.23-6.13-15.19s2.03-10.61,6.06-14.66c4.04-4.04,8.92-6.08,14.61-6.08ZM559.17,197.4h32.53v129.69h-32.53v-129.69Z"/>
      <path class="st0" d="M617.6,197.4h32.54v13.3c7.38-6.22,14.06-10.56,20.05-12.98,6-2.44,12.13-3.64,18.4-3.64,12.87,0,23.76,4.48,32.74,13.46,7.54,7.63,11.31,18.91,11.31,33.86v85.71h-32.19v-56.79c0-15.48-.69-25.76-2.08-30.83-1.39-5.09-3.81-8.95-7.26-11.63-3.44-2.65-7.71-3.97-12.78-3.97-6.58,0-12.23,2.19-16.94,6.6-4.72,4.41-8,10.5-9.82,18.28-.94,4.06-1.42,12.82-1.42,26.31v52.03h-32.54v-129.69Z"/>
      <path class="st0" d="M856.18,147.33h32.55v179.76h-32.55v-13.72c-6.37,6.05-12.73,10.41-19.12,13.06-6.39,2.67-13.31,3.99-20.77,3.99-16.76,0-31.26-6.48-43.47-19.49-12.21-12.98-18.33-29.14-18.33-48.46s5.91-36.43,17.74-49.21c11.83-12.79,26.19-19.2,43.1-19.2,7.77,0,15.08,1.46,21.9,4.41,6.84,2.94,13.14,7.34,18.95,13.23v-64.38ZM821.95,224.1c-10.06,0-18.42,3.55-25.07,10.67-6.64,7.11-9.97,16.22-9.97,27.36s3.39,20.42,10.16,27.65c6.78,7.24,15.11,10.85,25.02,10.85s18.68-3.55,25.42-10.67c6.72-7.11,10.09-16.42,10.09-27.94s-3.37-20.43-10.09-27.42c-6.74-6.98-15.25-10.49-25.55-10.49Z"/>
      <path class="st0" d="M1047.89,271.68h-104.55c1.51,9.21,5.56,16.52,12.1,21.97,6.56,5.44,14.92,8.18,25.09,8.18,12.16,0,22.61-4.27,31.36-12.77l27.42,12.87c-6.84,9.72-15.03,16.87-24.57,21.51-9.54,4.65-20.87,6.97-33.97,6.97-20.35,0-36.92-6.41-49.71-19.24-12.8-12.84-19.2-28.91-19.2-48.21s6.38-36.23,19.14-49.29c12.77-13.06,28.75-19.61,47.99-19.61,20.42,0,37.02,6.54,49.83,19.61,12.8,13.06,19.19,30.33,19.19,51.78l-.12,6.22ZM1015.34,246.03c-2.14-7.23-6.39-13.1-12.72-17.65-6.33-4.51-13.66-6.79-22.04-6.79-9.08,0-17.03,2.55-23.87,7.63-4.31,3.19-8.3,8.79-11.95,16.81h70.57Z"/>
      <path class="st0" d="M1166.41,197.4h32.42v111.09c0,21.93-4.41,38.07-13.23,48.41-11.84,13.98-29.68,20.97-53.52,20.97-12.72,0-23.42-1.6-32.06-4.78-8.67-3.17-15.99-7.84-21.94-13.99-5.96-6.16-10.38-13.65-13.24-22.47h35.89c3.16,3.66,7.27,6.41,12.27,8.28,5,1.87,10.92,2.8,17.77,2.8,8.74,0,15.77-1.35,21.09-4.06,5.32-2.7,9.09-6.2,11.27-10.49,2.18-4.29,3.27-11.68,3.27-22.16-5.72,5.7-11.72,9.82-18,12.34-6.28,2.49-13.4,3.74-21.34,3.74-17.4,0-32.1-6.27-44.1-18.83-11.99-12.54-18.01-28.45-18.01-47.67,0-20.6,6.37-37.13,19.08-49.6,11.52-11.28,25.28-16.92,41.27-16.92,7.46,0,14.52,1.38,21.14,4.11,6.63,2.74,13.29,7.24,19.96,13.53v-14.31ZM1132.67,224.47c-10.25,0-18.72,3.44-25.38,10.3-6.68,6.87-10.02,15.53-10.02,25.92s3.41,19.67,10.25,26.59c6.84,6.9,15.42,10.36,25.74,10.36s18.42-3.35,24.99-10.12c6.55-6.74,9.83-15.62,9.83-26.57s-3.29-19.6-9.89-26.36c-6.6-6.76-15.1-10.12-25.52-10.12Z"/>
      <path class="st0" d="M1323.81,197.4h32.54v129.69h-32.54v-13.72c-6.36,6.05-12.72,10.41-19.12,13.06-6.38,2.67-13.31,3.99-20.77,3.99-16.73,0-31.23-6.48-43.47-19.49-12.22-12.98-18.33-29.14-18.33-48.46s5.92-36.43,17.74-49.21c11.82-12.79,26.2-19.2,43.11-19.2,7.78,0,15.09,1.46,21.9,4.41,6.85,2.94,13.15,7.34,18.95,13.23v-14.31ZM1289.6,224.1c-10.08,0-18.42,3.55-25.08,10.67-6.64,7.11-9.97,16.22-9.97,27.36s3.37,20.42,10.14,27.65c6.77,7.24,15.11,10.85,25.02,10.85s18.71-3.55,25.43-10.67c6.74-7.11,10.1-16.42,10.1-27.94s-3.36-20.43-10.1-27.42c-6.72-6.98-15.25-10.49-25.54-10.49Z"/>
      <path class="st0" d="M1464.98,215.51l-20.15,20.16c-8.19-8.1-15.6-12.17-22.29-12.17-3.66,0-6.53.79-8.57,2.33-2.09,1.54-3.11,3.48-3.11,5.78,0,1.75.67,3.35,1.98,4.83,1.3,1.47,4.54,3.46,9.71,6.01l11.92,5.96c12.56,6.19,21.18,12.53,25.86,18.95,4.69,6.43,7.05,13.98,7.05,22.65,0,11.52-4.24,21.15-12.7,28.85-8.47,7.71-19.82,11.55-34.04,11.55-18.92,0-34.01-7.39-45.3-22.16l20.02-21.81c3.83,4.45,8.29,8.06,13.41,10.79,5.13,2.73,9.68,4.11,13.65,4.11,4.28,0,7.76-1.04,10.39-3.09,2.63-2.07,3.93-4.44,3.93-7.17,0-4.99-4.75-9.88-14.19-14.66l-10.96-5.47c-20.99-10.55-31.48-23.8-31.48-39.69,0-10.26,3.95-19.03,11.84-26.29,7.92-7.27,18.04-10.9,30.36-10.9,8.42,0,16.35,1.83,23.79,5.53,7.44,3.7,13.72,9.01,18.89,15.91Z"/>
      <path class="st0" d="M1493.27,149.6h32.54v47.8h19.3v28.01h-19.3v101.68h-32.54v-101.68h-16.71v-28.01h16.71v-47.8Z"/>
      <path class="st0" d="M1619.79,194.07c12.23,0,23.73,3.06,34.49,9.17,10.77,6.13,19.17,14.43,25.23,24.92,6.04,10.48,9.05,21.81,9.05,33.97s-3.04,23.67-9.13,34.32c-6.08,10.65-14.37,18.97-24.87,24.98-10.47,5.99-22.03,8.99-34.67,8.99-18.59,0-34.47-6.6-47.61-19.83-13.15-13.25-19.74-29.32-19.74-48.23,0-20.26,7.44-37.15,22.29-50.65,13.03-11.76,28.01-17.64,44.95-17.64ZM1620.31,224.71c-10.11,0-18.52,3.51-25.26,10.54-6.73,7.04-10.08,16.04-10.08,27.01s3.32,20.41,9.97,27.41c6.64,6.99,15.08,10.49,25.26,10.49s18.67-3.55,25.44-10.62c6.76-7.07,10.13-16.17,10.13-27.28s-3.32-20.17-9.95-27.12c-6.67-6.95-15.17-10.42-25.52-10.42Z"/>
      <path class="st0" d="M1790.86,215.51l-20.14,20.16c-8.19-8.1-15.62-12.17-22.29-12.17-3.65,0-6.51.79-8.58,2.33-2.07,1.54-3.11,3.48-3.11,5.78,0,1.75.65,3.35,1.96,4.83,1.32,1.47,4.56,3.46,9.74,6.01l11.91,5.96c12.56,6.19,21.18,12.53,25.87,18.95,4.69,6.43,7.04,13.98,7.04,22.65,0,11.52-4.23,21.15-12.7,28.85-8.47,7.71-19.83,11.55-34.04,11.55-18.92,0-34.03-7.39-45.3-22.16l20.03-21.81c3.83,4.45,8.29,8.06,13.41,10.79,5.14,2.73,9.67,4.11,13.64,4.11,4.28,0,7.75-1.04,10.37-3.09,2.65-2.07,3.94-4.44,3.94-7.17,0-4.99-4.72-9.88-14.18-14.66l-10.97-5.47c-20.99-10.55-31.47-23.8-31.47-39.69,0-10.26,3.95-19.03,11.86-26.29,7.91-7.27,18.02-10.9,30.34-10.9,8.42,0,16.35,1.83,23.77,5.53,7.45,3.7,13.74,9.01,18.89,15.91Z"/>
    </g>
    <path class="st0" d="M146.7,110.17h161.94s14.82.78,21.32,8.63c7.22,8.71,2.15,20.77-1.08,26.55-27.39,39.69-42.48,69.02-64.71,109.18,0,0-6.64-14.6-19.58-38.82-.33-.33-6.3-20.91-27.54-13.61-9.3,3.49-19.58,7.96-34.52,17.59-5.14,3.65-7.13,9.3-.33,21.57,0,0,22.89,42.47,41.48,89.6,2.98,7.3,5.63,14.61,13.1,15.93,7.47,1.33,19.91-3.15,29.21-7.13,9.29-3.99,18.74-8.63,26.05-25.89,7.3-17.25,18.25-41.65,28.46-62.55,10.2-20.91,28.13-54.26,36.34-66.7,8.21-12.44,13.56-15.81,20.16-14.94,6.59.88,10.95,13.07,12.57,32.11,1.62,19.04,4.36,57.16.47,102.39-3.6,41.88-11.37,64.28-11.37,64.28,0,0-4.9,26.34-31.65,26.34h-199.6s-16.68-.62-22.16-15.56c-1.99-6.47-1.11-15.43,1.62-29,2.74-13.56,8.21-52.64,8.71-71.72.49-19.08,1.49-57.41-5.47-104.2-2.99-19.25-5.94-31.19-5.94-31.19,0,0-3.54-11.57,3.29-21.74,8.13-12.11,19.25-11.12,19.25-11.12Z"/>
  </g>
  <path class="st0" d="M1833.84,330.18c-3.31,0-6.37-.59-9.21-1.77-2.83-1.18-5.31-2.83-7.43-4.96-2.12-2.12-3.78-4.6-4.95-7.43-1.18-2.83-1.77-5.9-1.77-9.2s.59-6.37,1.77-9.21c1.18-2.83,2.83-5.3,4.95-7.4,2.12-2.1,4.61-3.74,7.43-4.92,2.83-1.18,5.9-1.77,9.21-1.77s6.37.59,9.2,1.77c2.83,1.18,5.3,2.82,7.41,4.92,2.1,2.1,3.74,4.57,4.92,7.4,1.18,2.83,1.77,5.91,1.77,9.21s-.59,6.37-1.77,9.2c-1.18,2.83-2.82,5.31-4.92,7.43-2.1,2.12-4.57,3.78-7.41,4.96-2.83,1.18-5.9,1.77-9.2,1.77ZM1833.84,326.76c2.83,0,5.45-.51,7.85-1.51,2.4-1.01,4.48-2.41,6.24-4.22,1.76-1.8,3.13-3.91,4.12-6.34.98-2.43,1.48-5.05,1.48-7.89s-.49-5.46-1.48-7.89c-.99-2.42-2.36-4.53-4.12-6.31-1.76-1.78-3.84-3.18-6.24-4.18-2.41-1.01-5.02-1.51-7.85-1.51s-5.45.5-7.85,1.51c-2.41,1.01-4.5,2.4-6.28,4.18-1.78,1.78-3.16,3.89-4.15,6.31-.99,2.43-1.48,5.05-1.48,7.89s.49,5.46,1.48,7.89c.98,2.42,2.37,4.53,4.15,6.34,1.78,1.81,3.87,3.21,6.28,4.22,2.4,1.01,5.02,1.51,7.85,1.51ZM1823.86,320.39v-27.23h11.78c3.05,0,5.38.74,6.99,2.22,1.61,1.48,2.41,3.42,2.41,5.83s-.8,4.39-2.38,5.7-3.82,1.96-6.69,1.96l1.42-.71c1.37,0,2.51.34,3.41,1,.9.66,1.61,1.94,2.12,3.83l2.44,7.41h-6.31l-2.51-8.05c-.3-.94-.77-1.58-1.42-1.9s-1.4-.48-2.25-.48h-3.86l1.03-.71v11.14h-6.18ZM1829.97,305.33h4.83c1.46,0,2.55-.3,3.29-.9.73-.6,1.09-1.57,1.09-2.9s-.36-2.23-1.09-2.83c-.73-.6-1.83-.9-3.29-.9h-4.83v7.53Z"/>
</svg>